<svg xmlns="http://www.w3.org/2000/svg" xmlns:xlink="http://www.w3.org/1999/xlink" width="729" zoomAndPan="magnify" viewBox="0 0 546.75 822.74997" height="1097" preserveAspectRatio="xMidYMid meet" version="1.0"><defs><filter x="0%" y="0%" width="100%" height="100%" id="8a448379eb"><feColorMatrix values="0 0 0 0 1 0 0 0 0 1 0 0 0 0 1 0 0 0 1 0" color-interpolation-filters="sRGB"/></filter><clipPath id="8b794b0ca4"><path d="M 0 448 L 322 448 L 322 819 L 0 819 Z M 0 448 " clip-rule="nonzero"/></clipPath><clipPath id="5ba43f42ae"><path d="M 11.140625 314.175781 L 471.316406 324.480469 L 460.171875 822.125 L -0.00390625 811.820312 Z M 11.140625 314.175781 " clip-rule="nonzero"/></clipPath><clipPath id="7c3552fb0a"><path d="M 11.140625 314.175781 L 471.316406 324.480469 L 460.171875 822.125 L -0.00390625 811.820312 Z M 11.140625 314.175781 " clip-rule="nonzero"/></clipPath><clipPath id="23b7a1d1ea"><path d="M 9 314 L 461 314 L 461 822 L 9 822 Z M 9 314 " clip-rule="nonzero"/></clipPath><clipPath id="093ddeecbc"><path d="M 11.140625 314.175781 L 471.316406 324.480469 L 460.171875 822.125 L -0.00390625 811.820312 Z M 11.140625 314.175781 " clip-rule="nonzero"/></clipPath><clipPath id="da64dad92d"><path d="M 11.140625 314.175781 L 471.316406 324.480469 L 460.171875 822.125 L -0.00390625 811.820312 Z M 11.140625 314.175781 " clip-rule="nonzero"/></clipPath><clipPath id="c0272e0ac6"><path d="M 8 401 L 373 401 L 373 821 L 8 821 Z M 8 401 " clip-rule="nonzero"/></clipPath><clipPath id="cc0231394e"><path d="M 11.140625 314.175781 L 471.316406 324.480469 L 460.171875 822.125 L -0.00390625 811.820312 Z M 11.140625 314.175781 " clip-rule="nonzero"/></clipPath><clipPath id="7ee1eb5d94"><path d="M 11.140625 314.175781 L 471.316406 324.480469 L 460.171875 822.125 L -0.00390625 811.820312 Z M 11.140625 314.175781 " clip-rule="nonzero"/></clipPath><clipPath id="cd4bb1462e"><path d="M 9 380 L 423 380 L 423 822 L 9 822 Z M 9 380 " clip-rule="nonzero"/></clipPath><clipPath id="f1219a4471"><path d="M 11.140625 314.175781 L 471.316406 324.480469 L 460.171875 822.125 L -0.00390625 811.820312 Z M 11.140625 314.175781 " clip-rule="nonzero"/></clipPath><clipPath id="74dd248578"><path d="M 11.140625 314.175781 L 471.316406 324.480469 L 460.171875 822.125 L -0.00390625 811.820312 Z M 11.140625 314.175781 " clip-rule="nonzero"/></clipPath><clipPath id="297f5da8af"><path d="M 230 0.0625 L 546.5 0.0625 L 546.5 317 L 230 317 Z M 230 0.0625 " clip-rule="nonzero"/></clipPath><mask id="8dae16953a"><g filter="url(#8a448379eb)"><rect x="-54.675" width="656.1" fill="#000000" y="-82.274997" height="987.299964" fill-opacity="0.82"/></g></mask><clipPath id="da63df3a2d"><path d="M 0.0859375 0.0625 L 316.441406 0.0625 L 316.441406 316.417969 L 0.0859375 316.417969 Z M 0.0859375 0.0625 " clip-rule="nonzero"/></clipPath><clipPath id="6321629132"><rect x="0" width="317" y="0" height="317"/></clipPath></defs><g clip-path="url(#8b794b0ca4)"><g clip-path="url(#5ba43f42ae)"><g clip-path="url(#7c3552fb0a)"><path fill="#0055bb" d="M 0.265625 811.6875 L 8.390625 448.796875 L 13.816406 450.8125 L 14.519531 451.113281 C 26.449219 456.921875 37.644531 465.027344 47.046875 474.628906 C 55.300781 483.257812 62.09375 494.191406 67.25 507.136719 C 75.105469 526.867188 73.792969 548.515625 71.46875 567.085938 C 70.753906 573.003906 69.796875 578.921875 68.828125 584.835938 C 67.761719 591.449219 66.648438 598.28125 65.925781 604.992188 C 63.777344 625.757812 64.140625 642.460938 67.082031 657.535156 C 69.640625 669.78125 73.304688 680.925781 77.957031 690.601562 C 83.519531 701.582031 91.289062 711.84375 101.019531 721.042969 C 112.425781 731.496094 126.3125 739.167969 140.71875 746.746094 C 159.40625 756.429688 179.835938 765.03125 201.445312 772.308594 C 215.945312 776.980469 230.972656 781.140625 245.5 785.152344 L 258.046875 788.640625 C 279.539062 794.589844 296.101562 801.761719 310.160156 811.210938 L 321.570312 818.882812 Z M 0.265625 811.6875 " fill-opacity="1" fill-rule="nonzero"/></g></g></g><g clip-path="url(#23b7a1d1ea)"><g clip-path="url(#093ddeecbc)"><g clip-path="url(#da64dad92d)"><path fill="#1c8ccb" d="M 412.761719 820.925781 L 411.597656 819.167969 C 407.566406 813.070312 402.992188 807.023438 398.003906 801.1875 C 368.5 766.828125 328.84375 738.269531 289.195312 722.851562 C 272.707031 716.472656 255.324219 711.546875 238.507812 706.792969 C 220.9375 701.8125 202.777344 696.675781 185.398438 689.820312 C 171.398438 684.328125 160.347656 677.882812 151.609375 670.140625 C 144.851562 664.332031 140.0625 658.839844 136.59375 652.890625 C 125.070312 633.46875 127.566406 611.863281 131.027344 595.207031 C 133.488281 583.367188 136.542969 571.507812 139.5 560.03125 L 141.34375 552.820312 C 143.949219 542.484375 146.640625 531.804688 147.539062 521.1875 C 148.550781 508.0625 146.703125 495.605469 142.195312 485.203125 C 135.5 470.316406 123.664062 456.726562 106.035156 443.71875 C 88.835938 431.238281 69.457031 421.316406 50.707031 411.710938 C 37.761719 405.085938 24.382812 398.226562 11.707031 390.542969 L 9.722656 389.335938 L 11.40625 314.179688 L 20.015625 324.335938 C 31.152344 337.261719 45.589844 349.09375 65.453125 361.578125 C 81.011719 371.171875 97.582031 379.808594 113.609375 388.164062 C 124.34375 393.75 135.433594 399.535156 146.1875 405.578125 L 153.023438 409.457031 C 160.125 413.460938 167.472656 417.597656 174.347656 422.398438 C 179.59375 426.132812 184.859375 430.582031 190.011719 435.652344 C 219.292969 464.488281 230.597656 490.839844 224.574219 516.195312 C 222.207031 526.429688 217.066406 535.386719 212.101562 544.058594 C 210.144531 547.472656 208.191406 550.882812 206.414062 554.363281 C 199.441406 568.324219 191.78125 586.667969 194.628906 604.472656 C 196.742188 616.933594 202.539062 628.347656 210.941406 636.585938 C 227.109375 651.976562 248.605469 661.105469 265.519531 667.34375 C 275.085938 670.757812 285.042969 673.761719 294.679688 676.667969 C 303.085938 679.199219 311.480469 681.738281 319.789062 684.574219 C 337.546875 690.539062 354.898438 697.59375 371.351562 705.535156 C 390.515625 714.859375 410.402344 725.390625 424.617188 742.582031 C 432.46875 751.878906 438.667969 761.980469 443.007812 772.578125 C 446.433594 780.367188 449.039062 788.59375 451.566406 796.554688 C 452.726562 800.210938 453.878906 803.863281 455.128906 807.484375 C 456.128906 810.488281 457.234375 813.414062 458.421875 816.308594 L 460.761719 822 Z M 412.761719 820.925781 " fill-opacity="1" fill-rule="nonzero"/></g></g></g><g clip-path="url(#c0272e0ac6)"><g clip-path="url(#cc0231394e)"><g clip-path="url(#7ee1eb5d94)"><path fill="#0043b0" d="M 306.648438 818.546875 L 305.671875 817.890625 C 292.347656 808.933594 276.53125 802.109375 255.894531 796.394531 L 243.351562 792.914062 C 228.746094 788.875 213.632812 784.691406 198.925781 779.957031 C 176.878906 772.53125 156.0625 763.769531 136.996094 753.882812 C 122.078125 746.039062 107.691406 738.082031 95.542969 726.933594 C 85.085938 717.0625 76.753906 706.046875 70.738281 694.15625 C 65.761719 683.832031 61.890625 672.070312 59.191406 659.128906 C 56.089844 643.199219 55.6875 625.742188 57.921875 604.144531 C 58.675781 597.203125 59.800781 590.261719 60.886719 583.546875 C 61.832031 577.734375 62.773438 571.929688 63.476562 566.105469 C 65.679688 548.53125 66.953125 528.148438 59.777344 510.117188 C 54.996094 498.128906 48.765625 488.074219 41.261719 480.222656 C 32.527344 471.308594 22.105469 463.761719 11.148438 458.421875 L 8.828125 457.292969 L 8.261719 454.449219 L 9.453125 401.351562 L 14.996094 403.859375 C 26.5625 409.078125 35.140625 413.597656 42.808594 418.5 C 62.023438 430.835938 76.984375 446.464844 86.074219 463.699219 C 101.625 493.957031 97.933594 520.8125 94.03125 549.253906 C 92.820312 558.105469 91.5625 567.257812 90.863281 576.71875 C 89.710938 595.839844 91.007812 612.355469 94.851562 627.15625 C 100.253906 647.152344 108.363281 664.273438 118.929688 678.015625 C 146.8125 714.15625 180.867188 722.28125 223.96875 732.570312 L 229.144531 733.8125 C 255.679688 740.191406 289.910156 749.953125 319.269531 768.925781 C 337.8125 780.835938 353.550781 795.371094 367.363281 813.359375 L 372.484375 820.023438 Z M 306.648438 818.546875 " fill-opacity="1" fill-rule="nonzero"/></g></g></g><g clip-path="url(#cd4bb1462e)"><g clip-path="url(#f1219a4471)"><g clip-path="url(#74dd248578)"><path fill="#3db9ee" d="M 362.15625 819.792969 L 360.980469 818.261719 C 347.738281 801.023438 332.671875 787.097656 314.910156 775.691406 C 286.558594 757.378906 253.183594 747.875 227.261719 741.632812 L 222.101562 740.398438 C 179.21875 730.167969 142.175781 721.328125 112.550781 682.929688 C 101.335938 668.34375 92.761719 650.273438 87.066406 629.222656 C 83 613.546875 81.621094 596.207031 82.832031 576.183594 C 83.550781 566.410156 84.828125 557.128906 86.0625 548.15625 C 89.941406 519.832031 93.304688 495.375 78.9375 467.417969 C 70.511719 451.445312 56.511719 436.863281 38.464844 425.277344 C 31.148438 420.597656 22.886719 416.253906 11.683594 411.191406 L 9.257812 410.101562 L 9.929688 380.046875 L 15.886719 383.65625 C 28.308594 391.191406 41.5625 397.984375 54.378906 404.542969 C 73.394531 414.289062 93.0625 424.359375 110.789062 437.21875 C 129.585938 451.09375 142.253906 465.71875 149.558594 481.957031 C 154.605469 493.605469 156.679688 507.378906 155.5625 521.835938 C 154.609375 533.140625 151.835938 544.148438 149.144531 554.789062 L 147.292969 562.035156 C 144.363281 573.417969 141.332031 585.191406 138.902344 596.847656 C 135.738281 612.070312 133.410156 631.738281 143.535156 648.804688 C 146.554688 653.984375 150.796875 658.828125 156.90625 664.070312 C 164.96875 671.222656 175.238281 677.1875 188.339844 682.332031 C 205.355469 689.035156 223.328125 694.121094 240.695312 699.046875 C 257.691406 703.855469 275.261719 708.832031 292.109375 715.34375 C 332.953125 731.230469 373.773438 760.609375 404.121094 795.953125 C 409.320312 802.046875 414.09375 808.359375 418.316406 814.726562 L 422.558594 821.144531 Z M 362.15625 819.792969 " fill-opacity="1" fill-rule="nonzero"/></g></g></g><g clip-path="url(#297f5da8af)"><g mask="url(#8dae16953a)"><g transform="matrix(1, 0, 0, 1, 230, -0.00000000000009763)"><g clip-path="url(#6321629132)"><g clip-path="url(#da63df3a2d)"><path fill="#fcd116" d="M 158.265625 316.417969 C 136.910156 316.417969 116.195312 312.234375 96.695312 303.988281 C 77.859375 296.019531 60.945312 284.617188 46.417969 270.089844 C 31.890625 255.5625 20.484375 238.644531 12.519531 219.808594 C 4.269531 200.308594 0.0898438 179.59375 0.0898438 158.242188 C 0.0898438 136.886719 4.269531 116.171875 12.519531 96.671875 C 20.484375 77.835938 31.890625 60.921875 46.417969 46.390625 C 60.945312 31.863281 77.859375 20.460938 96.695312 12.492188 C 116.195312 4.246094 136.910156 0.0625 158.265625 0.0625 C 179.617188 0.0625 200.335938 4.246094 219.835938 12.492188 C 238.671875 20.460938 255.585938 31.867188 270.113281 46.390625 C 284.640625 60.917969 296.046875 77.835938 304.011719 96.671875 C 312.261719 116.171875 316.441406 136.886719 316.441406 158.242188 C 316.441406 179.59375 312.257812 200.308594 304.011719 219.808594 C 296.046875 238.644531 284.640625 255.5625 270.113281 270.089844 C 255.585938 284.617188 238.671875 296.019531 219.835938 303.988281 C 200.335938 312.234375 179.617188 316.417969 158.265625 316.417969 Z M 158.265625 0.386719 C 71.226562 0.386719 0.414062 71.199219 0.414062 158.242188 C 0.414062 245.28125 71.226562 316.09375 158.265625 316.09375 C 245.304688 316.09375 316.117188 245.28125 316.117188 158.242188 C 316.117188 71.199219 245.304688 0.386719 158.265625 0.386719 Z M 158.265625 0.386719 " fill-opacity="1" fill-rule="nonzero"/></g><path fill="#fcd116" d="M 158.265625 304.683594 C 138.496094 304.683594 119.316406 300.8125 101.261719 293.175781 C 83.824219 285.800781 68.164062 275.242188 54.714844 261.792969 C 41.265625 248.34375 30.707031 232.683594 23.332031 215.242188 C 15.695312 197.1875 11.820312 178.011719 11.820312 158.242188 C 11.820312 138.472656 15.695312 119.292969 23.332031 101.238281 C 30.707031 83.800781 41.265625 68.140625 54.714844 54.6875 C 68.164062 41.238281 83.824219 30.679688 101.261719 23.304688 C 119.316406 15.667969 138.496094 11.796875 158.265625 11.796875 C 178.035156 11.796875 197.214844 15.667969 215.269531 23.304688 C 232.707031 30.679688 248.367188 41.242188 261.816406 54.6875 C 275.265625 68.140625 285.824219 83.800781 293.199219 101.238281 C 300.835938 119.292969 304.710938 138.472656 304.710938 158.242188 C 304.710938 178.011719 300.835938 197.1875 293.199219 215.242188 C 285.824219 232.683594 275.265625 248.34375 261.816406 261.792969 C 248.367188 275.242188 232.707031 285.800781 215.269531 293.175781 C 197.214844 300.8125 178.035156 304.683594 158.265625 304.683594 Z M 158.265625 12.679688 C 78.003906 12.679688 12.703125 77.976562 12.703125 158.242188 C 12.703125 238.503906 78.003906 303.800781 158.265625 303.800781 C 238.527344 303.800781 303.828125 238.503906 303.828125 158.242188 C 303.828125 77.976562 238.527344 12.679688 158.265625 12.679688 Z M 158.265625 12.679688 " fill-opacity="1" fill-rule="nonzero"/><path fill="#fcd116" d="M 158.265625 292.953125 C 140.078125 292.953125 122.4375 289.390625 105.828125 282.367188 C 89.789062 275.582031 75.382812 265.867188 63.007812 253.496094 C 50.636719 241.125 40.925781 226.71875 34.140625 210.675781 C 27.117188 194.066406 23.554688 176.425781 23.554688 158.242188 C 23.554688 140.054688 27.113281 122.414062 34.140625 105.804688 C 40.925781 89.761719 50.636719 75.355469 63.007812 62.984375 C 75.382812 50.613281 89.789062 40.898438 105.828125 34.113281 C 122.4375 27.089844 140.078125 23.527344 158.265625 23.527344 C 176.449219 23.527344 194.09375 27.089844 210.703125 34.113281 C 226.742188 40.898438 241.148438 50.613281 253.519531 62.984375 C 265.894531 75.355469 275.605469 89.761719 282.390625 105.804688 C 289.414062 122.414062 292.976562 140.054688 292.976562 158.242188 C 292.976562 176.425781 289.414062 194.066406 282.390625 210.675781 C 275.605469 226.71875 265.894531 241.125 253.519531 253.496094 C 241.148438 265.867188 226.742188 275.582031 210.703125 282.367188 C 194.09375 289.390625 176.449219 292.953125 158.265625 292.953125 Z M 158.265625 24.972656 C 84.78125 24.972656 24.996094 84.753906 24.996094 158.242188 C 24.996094 231.726562 84.78125 291.511719 158.265625 291.511719 C 231.75 291.511719 291.535156 231.726562 291.535156 158.242188 C 291.535156 84.753906 231.75 24.972656 158.265625 24.972656 Z M 158.265625 24.972656 " fill-opacity="1" fill-rule="nonzero"/><path fill="#fcd116" d="M 158.265625 281.21875 C 141.664062 281.21875 125.558594 277.96875 110.394531 271.554688 C 95.75 265.359375 82.601562 256.492188 71.304688 245.199219 C 60.011719 233.90625 51.144531 220.753906 44.953125 206.109375 C 38.539062 190.949219 35.285156 174.84375 35.285156 158.242188 C 35.285156 141.640625 38.539062 125.535156 44.953125 110.371094 C 51.144531 95.726562 60.011719 82.574219 71.304688 71.28125 C 82.601562 59.988281 95.75 51.121094 110.394531 44.925781 C 125.558594 38.511719 141.664062 35.261719 158.265625 35.261719 C 174.867188 35.261719 190.972656 38.515625 206.136719 44.925781 C 220.78125 51.121094 233.929688 59.988281 245.222656 71.28125 C 256.519531 82.574219 265.386719 95.726562 271.578125 110.371094 C 277.992188 125.53125 281.242188 141.640625 281.242188 158.242188 C 281.242188 174.84375 277.992188 190.949219 271.578125 206.109375 C 265.386719 220.753906 256.519531 233.90625 245.222656 245.199219 C 233.929688 256.492188 220.78125 265.359375 206.136719 271.554688 C 190.972656 277.96875 174.867188 281.21875 158.265625 281.21875 Z M 158.265625 37.261719 C 91.558594 37.261719 37.289062 91.535156 37.289062 158.242188 C 37.289062 224.949219 91.558594 279.21875 158.265625 279.21875 C 224.972656 279.21875 279.242188 224.949219 279.242188 158.242188 C 279.242188 91.53125 224.972656 37.261719 158.265625 37.261719 Z M 158.265625 37.261719 " fill-opacity="1" fill-rule="nonzero"/><path fill="#fcd116" d="M 158.265625 269.484375 C 128.550781 269.484375 100.613281 257.914062 79.601562 236.902344 C 58.589844 215.890625 47.019531 187.957031 47.019531 158.242188 C 47.019531 128.527344 58.589844 100.589844 79.605469 79.578125 C 100.617188 58.566406 128.550781 46.996094 158.265625 46.996094 C 187.980469 46.996094 215.917969 58.566406 236.929688 79.578125 C 257.941406 100.589844 269.511719 128.527344 269.511719 158.242188 C 269.511719 187.957031 257.941406 215.890625 236.929688 236.902344 C 215.917969 257.914062 187.980469 269.484375 158.265625 269.484375 Z M 158.265625 49.554688 C 98.335938 49.554688 49.578125 98.3125 49.578125 158.242188 C 49.578125 218.171875 98.335938 266.929688 158.265625 266.929688 C 218.195312 266.929688 266.953125 218.171875 266.953125 158.242188 C 266.953125 98.3125 218.195312 49.554688 158.265625 49.554688 Z M 158.265625 49.554688 " fill-opacity="1" fill-rule="nonzero"/><path fill="#fcd116" d="M 158.265625 257.753906 C 131.683594 257.753906 106.695312 247.402344 87.898438 228.605469 C 69.105469 209.8125 58.753906 184.820312 58.753906 158.242188 C 58.753906 131.660156 69.105469 106.671875 87.898438 87.875 C 106.695312 69.078125 131.683594 58.730469 158.265625 58.730469 C 184.84375 58.730469 209.835938 69.078125 228.632812 87.875 C 247.425781 106.671875 257.777344 131.660156 257.777344 158.242188 C 257.777344 184.820312 247.425781 209.8125 228.632812 228.605469 C 209.835938 247.402344 184.84375 257.753906 158.265625 257.753906 Z M 158.265625 61.847656 C 105.113281 61.847656 61.871094 105.089844 61.871094 158.242188 C 61.871094 211.394531 105.113281 254.636719 158.265625 254.636719 C 211.417969 254.636719 254.660156 211.394531 254.660156 158.242188 C 254.660156 105.089844 211.417969 61.847656 158.265625 61.847656 Z M 158.265625 61.847656 " fill-opacity="1" fill-rule="nonzero"/><path fill="#fcd116" d="M 158.265625 246.019531 C 134.820312 246.019531 112.773438 236.890625 96.195312 220.3125 C 79.617188 203.730469 70.484375 181.6875 70.484375 158.242188 C 70.484375 134.792969 79.617188 112.75 96.195312 96.171875 C 112.773438 79.589844 134.816406 70.460938 158.265625 70.460938 C 181.710938 70.460938 203.757812 79.59375 220.335938 96.171875 C 236.914062 112.75 246.042969 134.792969 246.042969 158.242188 C 246.042969 181.6875 236.914062 203.730469 220.335938 220.3125 C 203.757812 236.890625 181.710938 246.019531 158.265625 246.019531 Z M 158.265625 74.136719 C 111.890625 74.136719 74.160156 111.867188 74.160156 158.238281 C 74.160156 204.613281 111.890625 242.34375 158.265625 242.34375 C 204.640625 242.34375 242.367188 204.613281 242.367188 158.238281 C 242.367188 111.863281 204.640625 74.136719 158.265625 74.136719 Z M 158.265625 74.136719 " fill-opacity="1" fill-rule="nonzero"/><path fill="#fcd116" d="M 158.265625 234.289062 C 137.953125 234.289062 118.855469 226.378906 104.492188 212.015625 C 90.128906 197.648438 82.21875 178.554688 82.21875 158.242188 C 82.21875 137.925781 90.128906 118.832031 104.492188 104.46875 C 118.855469 90.105469 137.953125 82.195312 158.265625 82.195312 C 178.578125 82.195312 197.675781 90.105469 212.039062 104.46875 C 226.402344 118.832031 234.3125 137.925781 234.3125 158.242188 C 234.3125 178.554688 226.402344 197.648438 212.039062 212.015625 C 197.675781 226.378906 178.578125 234.289062 158.265625 234.289062 Z M 158.265625 86.429688 C 118.667969 86.429688 86.453125 118.644531 86.453125 158.242188 C 86.453125 197.835938 118.667969 230.054688 158.265625 230.054688 C 197.863281 230.054688 230.078125 197.839844 230.078125 158.242188 C 230.078125 118.644531 197.863281 86.429688 158.265625 86.429688 Z M 158.265625 86.429688 " fill-opacity="1" fill-rule="nonzero"/><path fill="#fcd116" d="M 158.265625 222.554688 C 122.800781 222.554688 93.953125 193.703125 93.953125 158.242188 C 93.953125 122.777344 122.800781 93.925781 158.265625 93.925781 C 193.726562 93.925781 222.578125 122.777344 222.578125 158.242188 C 222.578125 193.703125 193.726562 222.554688 158.265625 222.554688 Z M 158.265625 98.722656 C 125.445312 98.722656 98.746094 125.421875 98.746094 158.242188 C 98.746094 191.0625 125.445312 217.761719 158.265625 217.761719 C 191.085938 217.761719 217.785156 191.0625 217.785156 158.242188 C 217.785156 125.421875 191.085938 98.722656 158.265625 98.722656 Z M 158.265625 98.722656 " fill-opacity="1" fill-rule="nonzero"/><path fill="#fcd116" d="M 158.265625 210.820312 C 129.273438 210.820312 105.683594 187.234375 105.683594 158.238281 C 105.683594 129.246094 129.269531 105.65625 158.265625 105.65625 C 187.257812 105.65625 210.847656 129.246094 210.847656 158.238281 C 210.847656 187.234375 187.257812 210.820312 158.265625 210.820312 Z M 158.265625 111.011719 C 132.222656 111.011719 111.035156 132.199219 111.035156 158.238281 C 111.035156 184.28125 132.222656 205.46875 158.265625 205.46875 C 184.308594 205.46875 205.492188 184.28125 205.492188 158.238281 C 205.492188 132.199219 184.308594 111.011719 158.265625 111.011719 Z M 158.265625 111.011719 " fill-opacity="1" fill-rule="nonzero"/><path fill="#fcd116" d="M 158.265625 199.089844 C 135.742188 199.089844 117.417969 180.765625 117.417969 158.238281 C 117.417969 135.714844 135.742188 117.390625 158.265625 117.390625 C 180.789062 117.390625 199.113281 135.714844 199.113281 158.238281 C 199.113281 180.765625 180.789062 199.089844 158.265625 199.089844 Z M 158.265625 123.304688 C 139 123.304688 123.328125 138.976562 123.328125 158.242188 C 123.328125 177.507812 139 193.179688 158.265625 193.179688 C 177.53125 193.179688 193.203125 177.507812 193.203125 158.242188 C 193.203125 138.976562 177.53125 123.304688 158.265625 123.304688 Z M 158.265625 123.304688 " fill-opacity="1" fill-rule="nonzero"/><path fill="#fcd116" d="M 158.265625 187.355469 C 142.210938 187.355469 129.152344 174.292969 129.152344 158.242188 C 129.152344 142.1875 142.210938 129.125 158.265625 129.125 C 174.320312 129.125 187.378906 142.1875 187.378906 158.242188 C 187.378906 174.296875 174.320312 187.355469 158.265625 187.355469 Z M 158.265625 135.59375 C 145.777344 135.59375 135.621094 145.753906 135.621094 158.242188 C 135.621094 170.726562 145.777344 180.886719 158.265625 180.886719 C 170.753906 180.886719 180.910156 170.726562 180.910156 158.242188 C 180.910156 145.753906 170.753906 135.59375 158.265625 135.59375 Z M 158.265625 135.59375 " fill-opacity="1" fill-rule="nonzero"/></g></g></g></g></svg>